<svg width="34" height="34" viewBox="0 0 34 34" fill="none" xmlns="http://www.w3.org/2000/svg">
<path d="M13.7096 21.6575L15.6296 19.6689L12.6811 16.7204L15.6296 13.7718L13.7096 11.7832L8.77249 16.7204L13.7096 21.6575ZM20.2925 21.6575L25.2296 16.7204L20.2925 11.7832L18.3725 13.7718L21.3211 16.7204L18.3725 19.6689L20.2925 21.6575ZM7.40106 29.0632C6.64677 29.0632 6.00129 28.7949 5.4646 28.2582C4.92792 27.7215 4.65912 27.0756 4.6582 26.3204V7.12036C4.6582 6.36607 4.927 5.72059 5.4646 5.1839C6.0022 4.64721 6.64769 4.37841 7.40106 4.3775H13.1611C13.4582 3.55464 13.9556 2.89179 14.6532 2.38893C15.3508 1.88607 16.1334 1.63464 17.0011 1.63464C17.8696 1.63464 18.6527 1.88607 19.3503 2.38893C20.0479 2.89179 20.5448 3.55464 20.8411 4.3775H26.6011C27.3553 4.3775 28.0013 4.6463 28.5389 5.1839C29.0765 5.7215 29.3448 6.36699 29.3439 7.12036V26.3204C29.3439 27.0746 29.0756 27.7206 28.5389 28.2582C28.0022 28.7958 27.3563 29.0641 26.6011 29.0632H7.40106ZM17.0011 6.09179C17.2982 6.09179 17.5441 5.99441 17.7389 5.79967C17.9336 5.60493 18.0305 5.35944 18.0296 5.06321C18.0296 4.76607 17.9323 4.52059 17.7375 4.32676C17.5428 4.13293 17.2973 4.03556 17.0011 4.03464C16.7039 4.03464 16.4584 4.13201 16.2646 4.32676C16.0708 4.5215 15.9734 4.76699 15.9725 5.06321C15.9725 5.36036 16.0699 5.6063 16.2646 5.80104C16.4593 5.99579 16.7048 6.0927 17.0011 6.09179Z" fill="#2EACFC"/>
</svg>
