<svg width="27" height="26" viewBox="0 0 27 26" fill="none" xmlns="http://www.w3.org/2000/svg">
<path d="M14.5147 2.29185C15.2965 2.28885 16.0783 2.2967 16.8599 2.31542L17.0678 2.32291C17.3077 2.33149 17.5445 2.3422 17.8306 2.35506C18.9705 2.40862 19.7483 2.58861 20.4307 2.85324C21.1378 3.12536 21.7335 3.4939 22.3292 4.08958C22.8738 4.62483 23.2954 5.2723 23.5645 5.98695C23.8291 6.6694 24.0091 7.44827 24.0626 8.58819C24.0755 8.87317 24.0862 9.11101 24.0948 9.351L24.1012 9.55884C24.1202 10.3401 24.1285 11.1215 24.1258 11.903L24.1269 12.7022V14.1057C24.1296 14.8875 24.1213 15.6693 24.1023 16.4509L24.0958 16.6587C24.0873 16.8987 24.0766 17.1355 24.0637 17.4215C24.0101 18.5614 23.828 19.3392 23.5645 20.0217C23.2962 20.7371 22.8746 21.3851 22.3292 21.9201C21.7935 22.4647 21.1457 22.8862 20.4307 23.1554C19.7483 23.42 18.9705 23.6 17.8306 23.6536C17.5445 23.6664 17.3077 23.6771 17.0678 23.6857L16.8599 23.6921C16.0783 23.7112 15.2965 23.7194 14.5147 23.7168L13.7155 23.7179H12.3131C11.5313 23.7205 10.7495 23.7123 9.9679 23.6932L9.76006 23.6868C9.50573 23.6776 9.25146 23.6669 8.99726 23.6546C7.85734 23.6011 7.07953 23.4189 6.39601 23.1554C5.68108 22.8869 5.0335 22.4653 4.49864 21.9201C3.95337 21.3848 3.53145 20.7369 3.2623 20.0217C2.99767 19.3392 2.81769 18.5614 2.76412 17.4215C2.75219 17.1673 2.74147 16.913 2.73198 16.6587L2.72662 16.4509C2.70687 15.6693 2.69794 14.8875 2.69984 14.1057V11.903C2.69685 11.1215 2.7047 10.3401 2.72341 9.55884L2.73091 9.351C2.73948 9.11101 2.75019 8.87317 2.76305 8.58819C2.81661 7.4472 2.9966 6.67047 3.26123 5.98695C3.53054 5.27195 3.95328 4.62466 4.49971 4.09065C5.0342 3.54506 5.68137 3.12276 6.39601 2.85324C7.07953 2.58861 7.85626 2.40862 8.99726 2.35506L9.76006 2.32291L9.9679 2.31756C10.7491 2.29782 11.5306 2.28889 12.312 2.29077L14.5147 2.29185ZM13.4134 7.64862C12.7036 7.63858 11.9989 7.7697 11.3403 8.03438C10.6816 8.29905 10.0822 8.69198 9.57669 9.19035C9.07123 9.68872 8.66985 10.2826 8.39589 10.9374C8.12193 11.5923 7.98085 12.295 7.98085 13.0049C7.98085 13.7147 8.12193 14.4174 8.39589 15.0723C8.66985 15.7271 9.07123 16.321 9.57669 16.8193C10.0822 17.3177 10.6816 17.7107 11.3403 17.9753C11.9989 18.24 12.7036 18.3711 13.4134 18.3611C14.8341 18.3611 16.1966 17.7967 17.2012 16.7921C18.2058 15.7875 18.7701 14.425 18.7701 13.0043C18.7701 11.5836 18.2058 10.2211 17.2012 9.21651C16.1966 8.21192 14.8341 7.64862 13.4134 7.64862ZM13.4134 9.79132C13.8403 9.78346 14.2645 9.86074 14.6613 10.0187C15.058 10.1766 15.4193 10.412 15.7241 10.7111C16.0288 11.0103 16.2709 11.3671 16.4361 11.7608C16.6014 12.1546 16.6866 12.5773 16.6867 13.0043C16.6867 13.4313 16.6017 13.8541 16.4366 14.2479C16.2714 14.6416 16.0295 14.9986 15.7248 15.2978C15.4202 15.597 15.059 15.8326 14.6623 15.9906C14.2656 16.1487 13.8414 16.2261 13.4144 16.2184C12.562 16.2184 11.7445 15.8798 11.1418 15.277C10.539 14.6742 10.2004 13.8567 10.2004 13.0043C10.2004 12.1519 10.539 11.3344 11.1418 10.7316C11.7445 10.1289 12.562 9.79025 13.4144 9.79025L13.4134 9.79132ZM19.038 6.04158C18.6924 6.05542 18.3655 6.20245 18.1258 6.45188C17.8862 6.70132 17.7523 7.0338 17.7523 7.37971C17.7523 7.72561 17.8862 8.0581 18.1258 8.30753C18.3655 8.55696 18.6924 8.70399 19.038 8.71783C19.3932 8.71783 19.7338 8.57673 19.9849 8.32559C20.2361 8.07444 20.3772 7.73381 20.3772 7.37863C20.3772 7.02346 20.2361 6.68283 19.9849 6.43168C19.7338 6.18054 19.3932 6.03944 19.038 6.03944V6.04158Z" fill="white"/>
</svg>
