<svg width="34" height="34" viewBox="0 0 34 34" fill="none" xmlns="http://www.w3.org/2000/svg">
<g clip-path="url(#clip0_2316_68)">
<path d="M19.0573 1.29126L0.542969 19.8056L11.8573 31.1198L30.3715 12.6055V1.29126H19.0573ZM24.2001 9.51983C23.7933 9.51983 23.3955 9.39918 23.0572 9.17314C22.7189 8.9471 22.4553 8.62582 22.2996 8.24993C22.1439 7.87403 22.1031 7.46041 22.1825 7.06136C22.2619 6.66231 22.4578 6.29577 22.7455 6.00807C23.0332 5.72037 23.3997 5.52445 23.7988 5.44507C24.1978 5.3657 24.6115 5.40644 24.9874 5.56214C25.3632 5.71784 25.6845 5.98151 25.9106 6.3198C26.1366 6.6581 26.2573 7.05583 26.2573 7.46269C26.2573 8.00828 26.0405 8.53152 25.6547 8.91731C25.2689 9.3031 24.7457 9.51983 24.2001 9.51983Z" fill="#FF389B"/>
<path d="M31.3999 4.37695V13.6341L14.4863 30.5477L16.0999 32.1484L33.4571 14.6627V4.37695H31.3999Z" fill="#FF389B"/>
</g>
<defs>
<clipPath id="clip0_2316_68">
<rect width="32.9143" height="32.9143" fill="white" transform="translate(0.542969 0.262695)"/>
</clipPath>
</defs>
</svg>
