<svg width="27" height="26" viewBox="0 0 27 26" fill="none" xmlns="http://www.w3.org/2000/svg">
<g clip-path="url(#clip0_2316_238)">
<path d="M23.6499 4.43282C23.5526 4.42278 23.4544 4.42278 23.3571 4.43282H3.35709C3.2289 4.43479 3.10157 4.45401 2.97852 4.48996L13.2999 14.7685L23.6499 4.43282Z" fill="white"/>
<path d="M24.707 5.42627L14.307 15.7834C14.0393 16.0495 13.6772 16.1988 13.2998 16.1988C12.9224 16.1988 12.5603 16.0495 12.2927 15.7834L1.98555 5.50484C1.95386 5.6213 1.93706 5.7413 1.93555 5.86198V20.1477C1.93555 20.5266 2.08606 20.8899 2.35397 21.1578C2.62187 21.4258 2.98524 21.5763 3.36412 21.5763H23.3641C23.743 21.5763 24.1064 21.4258 24.3743 21.1578C24.6422 20.8899 24.7927 20.5266 24.7927 20.1477V5.86198C24.787 5.71317 24.7581 5.56615 24.707 5.42627ZM4.34269 20.1477H3.34983V19.1263L8.54269 13.9763L9.54983 14.9834L4.34269 20.1477ZM23.3498 20.1477H22.3498L17.1427 14.9834L18.1498 13.9763L23.3427 19.1263L23.3498 20.1477Z" fill="white"/>
</g>
<defs>
<clipPath id="clip0_2316_238">
<rect width="25.7143" height="25.7143" fill="white" transform="translate(0.556641 0.147949)"/>
</clipPath>
</defs>
</svg>
