<svg width="42" height="42" viewBox="0 0 42 42" fill="none" xmlns="http://www.w3.org/2000/svg">
<path d="M13.3661 9.44958C12.1023 9.72313 11.0847 10.2757 10.1929 11.173C9.44333 11.928 8.86887 12.9402 8.60078 13.9742C8.25063 15.3256 8.4257 17.0818 9.02753 18.2854C9.25732 18.7341 9.72783 19.407 10.0889 19.79C12.4689 22.3177 16.5175 22.3943 18.9795 19.9541C21.0968 17.8532 21.4306 14.576 19.7838 12.0757C19.4938 11.6326 18.7935 10.894 18.3175 10.5383C17.8142 10.1554 16.8622 9.69578 16.2111 9.52617C15.4506 9.32374 14.1047 9.29092 13.3661 9.44958ZM14.9473 11.5888C15.0677 11.731 15.0895 11.8076 15.0895 12.1085V12.4587H15.7406C16.3643 12.4587 16.4026 12.4642 16.5613 12.6009C16.7801 12.7815 16.7965 13.0551 16.5941 13.252C16.4683 13.3833 16.43 13.3888 15.7734 13.3888H15.0895V14.2313V15.0739L15.3795 15.1122C16.0798 15.1997 16.5886 15.5335 16.8841 16.0915C17.0154 16.3432 17.0318 16.4307 17.0318 16.9177C17.0318 17.421 17.0208 17.4867 16.8677 17.7602C16.5613 18.3183 15.954 18.6958 15.3631 18.6958H15.0895V19.0022C15.0895 19.3633 15.0348 19.4891 14.816 19.5985C14.4494 19.7845 14.1594 19.5274 14.1594 19.0186V18.6958H13.4974C13.1309 18.6958 12.7917 18.6684 12.7315 18.6356C12.5619 18.5481 12.4634 18.2745 12.529 18.083C12.6275 17.804 12.7479 17.7657 13.4865 17.7657H14.1594V16.9231V16.0861L13.8093 16.0532C13.1637 15.993 12.6385 15.6429 12.3594 15.0848C12.1461 14.6526 12.1023 14.2696 12.2117 13.8374C12.4142 13.0441 13.0105 12.5353 13.8148 12.4696L14.1594 12.4423V12.0648C14.1594 11.7365 14.1759 11.6709 14.2962 11.556C14.4932 11.3535 14.7667 11.3699 14.9473 11.5888Z" fill="#33C956"/>
<path d="M13.6498 13.4654C13.2669 13.6076 13.1191 13.8265 13.1191 14.2751C13.1191 14.7894 13.4091 15.0848 13.9125 15.0848H14.1587V14.2368V13.3888H14.0109C13.9234 13.3943 13.7647 13.4271 13.6498 13.4654Z" fill="#33C956"/>
<path d="M15.0898 16.9231V17.7821L15.3689 17.7547C15.6917 17.7219 15.8996 17.5851 16.0309 17.3225C16.3208 16.759 15.9324 16.0696 15.3306 16.0696H15.0898V16.9231Z" fill="#33C956"/>
<path d="M27.1322 9.84357C26.9517 9.94205 23.0344 14.8989 22.9961 15.0849C22.9578 15.2655 23.0344 15.4788 23.193 15.6265C23.3134 15.736 23.3736 15.7414 24.4569 15.7414H25.5948V17.3609V18.9803L25.7207 18.9475C26.038 18.8545 26.9298 18.7506 27.373 18.7506C27.8107 18.7506 28.8009 18.8655 29.0581 18.9475C29.1456 18.9749 29.1511 18.8764 29.1511 17.3609V15.7414H30.2945C31.4052 15.7414 31.4489 15.736 31.5857 15.6156C31.7991 15.4351 31.8265 15.1177 31.6514 14.8551C31.4325 14.5378 27.8654 10.0351 27.7395 9.92564C27.5973 9.79433 27.2964 9.75603 27.1322 9.84357Z" fill="#33C956"/>
<path d="M26.6329 19.7353C24.5156 19.987 22.6663 21.3274 21.7581 23.2587C20.8335 25.2338 21.0031 27.5317 22.2122 29.3645C22.5022 29.8077 23.208 30.5463 23.6785 30.9019C24.1873 31.2849 25.1393 31.7445 25.7849 31.9195C26.2882 32.0508 26.4195 32.0673 27.3715 32.0673C28.3344 32.0673 28.4548 32.0563 28.9581 31.9195C29.5271 31.7663 30.2931 31.4271 30.8074 31.0989C32.0056 30.3329 33.0232 28.905 33.3952 27.477C33.7454 26.1147 33.5758 24.3639 32.9685 23.1548C32.5691 22.3724 31.8141 21.4587 31.1247 20.9335C30.6542 20.5779 29.6803 20.0964 29.0949 19.9323C28.2907 19.708 27.4536 19.6369 26.6329 19.7353ZM27.7162 21.9566C27.8147 22.0715 27.8366 22.1591 27.8366 22.4764V22.8539H28.5095C29.2372 22.8539 29.3794 22.8977 29.4834 23.1603C29.5545 23.3518 29.4177 23.6581 29.2317 23.7293C29.1496 23.7621 28.8049 23.784 28.4603 23.784H27.8366V24.6265V25.4636L28.1812 25.491C28.8542 25.5457 29.3958 25.9232 29.6749 26.536C30.1946 27.6739 29.4451 28.9542 28.1922 29.0746L27.8366 29.1074V29.4302C27.8366 29.8241 27.6834 30.0211 27.377 30.0211C27.0925 30.0211 26.9065 29.7749 26.9065 29.3864V29.091H26.2445C25.5879 29.091 25.5825 29.091 25.4238 28.9323C25.2542 28.7627 25.2214 28.5657 25.3253 28.3688C25.4238 28.1828 25.7083 28.1062 26.332 28.1062H26.9065V27.2581V26.4101H26.5946C26.0092 26.4101 25.4129 26.0271 25.1119 25.4527C24.9806 25.2065 24.9642 25.1189 24.9642 24.632C24.9642 24.1615 24.9806 24.0521 25.0955 23.8387C25.3964 23.2587 25.9162 22.9086 26.5399 22.8648L26.9065 22.8375V22.4873C26.9065 22.0825 26.9557 21.9621 27.1691 21.8417C27.3551 21.7378 27.5575 21.7815 27.7162 21.9566Z" fill="#33C956"/>
<path d="M26.3111 23.8825C26.0375 24.0193 25.9062 24.2272 25.8843 24.5609C25.846 25.0752 26.1251 25.4199 26.6284 25.4691L26.9074 25.4965V24.6375V23.784H26.705C26.5901 23.784 26.415 23.8278 26.3111 23.8825Z" fill="#33C956"/>
<path d="M27.8379 27.2527V28.1062H28.0841C28.5929 28.1062 28.8774 27.8108 28.8774 27.2855C28.8774 26.7712 28.6421 26.5196 28.095 26.4375L27.8379 26.3992V27.2527Z" fill="#33C956"/>
<path d="M12.8457 24.0794V25.6988H11.7022C10.5916 25.6988 10.5478 25.7043 10.411 25.8247C10.1977 26.0052 10.1703 26.3226 10.3454 26.5797C10.5697 26.9134 14.1369 31.4107 14.2682 31.5256C14.4487 31.6897 14.8262 31.6733 15.0013 31.4982C15.2694 31.2192 18.9351 26.5469 18.9788 26.4156C19.05 26.2295 18.9898 26.0052 18.8256 25.8411L18.6834 25.6988H17.5454H16.4019V24.0794V22.4599L16.2816 22.4928C15.9588 22.5858 15.067 22.6897 14.6238 22.6897C14.1861 22.6897 13.1959 22.5748 12.9442 22.4928C12.8512 22.4654 12.8457 22.5639 12.8457 24.0794Z" fill="#33C956"/>
</svg>
