<svg width="27" height="26" viewBox="0 0 27 26" fill="none" xmlns="http://www.w3.org/2000/svg">
<path d="M25.4665 5.64845C24.5622 6.04137 23.6054 6.30023 22.6264 6.41686C23.6553 5.81437 24.4291 4.85721 24.8026 3.7249C23.8298 4.29372 22.7673 4.69283 21.6606 4.90514C21.1946 4.41674 20.6341 4.0282 20.0132 3.76314C19.3924 3.49808 18.7241 3.36204 18.049 3.36329C15.3159 3.36329 13.1041 5.54298 13.1041 8.22992C13.1021 8.60366 13.145 8.97629 13.2316 9.33985C11.2718 9.24797 9.35266 8.74801 7.59709 7.87195C5.84151 6.9959 4.28813 5.76303 3.03633 4.25224C2.59716 4.99259 2.36491 5.83731 2.36384 6.69811C2.36384 8.38561 3.24425 9.87724 4.57366 10.7511C3.78602 10.7324 3.01453 10.524 2.32466 10.1434V10.2037C2.32466 12.5642 4.03225 14.5279 6.2923 14.9749C5.8673 15.0882 5.42935 15.1456 4.98951 15.1457C4.67741 15.1462 4.36602 15.1159 4.05988 15.0553C4.68817 16.9888 6.5168 18.3951 8.68292 18.4353C6.92279 19.7918 4.76181 20.5249 2.53962 20.5195C2.14518 20.519 1.7511 20.4955 1.35938 20.4492C3.62001 21.8927 6.24782 22.6563 8.93002 22.649C18.0385 22.649 23.0146 15.231 23.0146 8.79744C23.0146 8.5865 23.0091 8.37557 22.999 8.16965C23.9649 7.48263 24.8005 6.62886 25.4665 5.64845Z" fill="white"/>
</svg>
