<svg width="1902" height="1501" viewBox="0 0 1902 1501" fill="none" xmlns="http://www.w3.org/2000/svg">
<path d="M1135.75 -412.352C1559.62 -661.31 1731.59 -205.885 1683.86 168.822C1665.57 384.886 1921.29 455.041 1898.47 722.745C1875.65 990.45 1519.37 772.323 1476.82 1183.99C1434.27 1595.65 747.313 1584.32 652.502 1259.89C557.691 935.452 474.392 1053.9 141.395 793.288C-191.601 532.677 2.16343 -108.608 399.021 -68.3921C795.878 -28.1764 676.904 -142.852 1135.75 -412.352Z" stroke="url(#paint0_linear_2316_18)" stroke-opacity="0.7" stroke-width="4" stroke-miterlimit="10"/>
<path d="M967.767 385.591C1007.46 359.336 1096.08 408.754 1080.77 471.687C1066.75 529.316 1099.01 575.534 1095.81 612.634C1087.41 710.303 1061.56 682.132 1033.91 732.194C1000.27 793.113 884.383 848.932 854.551 737.6C830.016 646.034 792.885 685.348 754.807 622.062C716.73 558.777 729.437 472.031 817.747 448.368C850.91 439.482 901.663 429.32 967.767 385.591Z" stroke="url(#paint1_linear_2316_18)" stroke-opacity="0.7" stroke-width="4" stroke-miterlimit="10"/>
<path d="M1122.7 -340.417C1511.65 -569.128 1676.03 -150.613 1631.26 195.751C1613.36 397.411 1848.76 465.39 1827.72 712.131C1806.21 964.377 1479.97 763.519 1438.77 1142.31C1397.03 1522.09 761.995 1516.86 673.091 1211.8C584.669 908.537 505.567 1019.79 199.381 777.117C-106.804 534.445 70.5004 -56.4272 439.308 -22.0186C803.102 13.7333 699.557 -91.4413 1122.7 -340.417Z" stroke="url(#paint2_linear_2316_18)" stroke-opacity="0.7" stroke-width="4" stroke-miterlimit="10"/>
<path d="M1109.65 -268.481C1463.67 -476.946 1620.48 -95.3409 1578.65 222.68C1561.14 409.937 1776.22 475.74 1756.97 701.516C1736.77 938.305 1440.57 754.716 1400.73 1100.64C1359.8 1448.53 776.676 1449.4 693.679 1163.72C611.646 881.622 536.741 985.681 257.366 760.947C-22.0085 536.213 138.836 -4.2459 479.594 24.3556C810.325 55.6437 722.21 -40.0297 1109.65 -268.481Z" stroke="url(#paint3_linear_2316_18)" stroke-opacity="0.7" stroke-width="4" stroke-miterlimit="10"/>
<path d="M1096.6 -196.543C1415.69 -384.764 1564.93 -40.0679 1526.04 249.61C1508.92 422.464 1703.69 486.091 1686.22 690.903C1667.34 912.234 1401.17 745.913 1362.68 1058.96C1322.56 1374.97 791.355 1381.95 714.266 1115.63C638.621 854.708 567.913 951.573 315.349 744.778C62.7854 537.983 207.171 47.9362 519.879 70.7305C817.547 97.5548 744.861 11.3827 1096.6 -196.543Z" stroke="url(#paint4_linear_2316_18)" stroke-opacity="0.7" stroke-width="4" stroke-miterlimit="10"/>
<path d="M1083.54 -124.605C1367.71 -292.58 1509.37 15.2062 1473.43 276.541C1456.7 434.992 1631.15 496.442 1615.47 680.291C1597.89 886.164 1361.77 737.112 1324.64 1017.29C1285.32 1301.41 806.033 1314.49 734.851 1067.55C665.595 827.795 599.084 917.466 373.331 728.61C147.577 539.753 275.503 100.119 560.161 117.107C824.766 139.467 767.511 62.7963 1083.54 -124.605Z" stroke="url(#paint5_linear_2316_18)" stroke-opacity="0.7" stroke-width="4" stroke-miterlimit="10"/>
<path d="M1068.96 -52.2569C1318.2 -199.986 1452.28 70.8905 1419.29 303.882C1402.95 447.93 1557.09 507.204 1543.19 670.089C1526.92 860.504 1320.84 728.721 1285.06 976.022C1246.56 1228.26 819.182 1247.45 753.907 1019.88C691.04 801.292 628.726 883.769 429.784 712.852C230.841 541.934 342.307 152.713 598.916 163.893C830.457 181.79 788.632 114.62 1068.96 -52.2569Z" stroke="url(#paint6_linear_2316_18)" stroke-opacity="0.7" stroke-width="4" stroke-miterlimit="10"/>
<path d="M1052.57 20.5769C1266.89 -106.907 1393.39 127.06 1363.35 331.709C1347.39 461.353 1481.22 518.452 1469.1 660.372C1454.15 835.33 1278.1 720.815 1243.68 935.243C1205.99 1155.59 830.524 1180.89 771.157 972.69C714.678 775.275 656.561 850.558 484.43 697.579C312.298 544.6 407.304 205.792 635.863 211.165C834.341 224.598 807.945 166.929 1052.57 20.5769Z" stroke="url(#paint7_linear_2316_18)" stroke-opacity="0.7" stroke-width="4" stroke-miterlimit="10"/>
<path d="M1036.08 93.4393C1215.47 -13.7985 1334.4 183.259 1307.3 359.564C1291.73 474.805 1405.24 529.728 1394.92 650.684C1381.27 810.184 1235.26 712.938 1202.2 894.492C1165.31 1082.96 841.766 1114.35 788.305 925.531C738.216 749.286 684.296 817.376 538.975 682.335C393.654 547.295 472.201 258.899 672.71 258.465C838.125 267.434 827.159 219.267 1036.08 93.4393Z" stroke="url(#paint8_linear_2316_18)" stroke-opacity="0.7" stroke-width="4" stroke-miterlimit="10"/>
<path d="M1019.44 166.343C1163.91 79.3508 1275.26 239.498 1251.11 387.46C1235.93 488.299 1329.13 541.045 1320.58 641.037C1308.25 785.08 1192.28 705.102 1160.57 853.784C1124.5 1010.36 852.864 1047.86 805.311 878.414C761.609 723.339 711.887 784.234 593.377 667.133C474.867 550.031 536.953 312.048 709.412 305.806C841.765 310.312 846.228 271.646 1019.44 166.343Z" stroke="url(#paint9_linear_2316_18)" stroke-opacity="0.7" stroke-width="4" stroke-miterlimit="10"/>
<path d="M1002.6 239.308C1112.14 172.562 1215.91 295.8 1194.71 415.419C1179.92 501.854 1252.8 552.424 1246.04 631.452C1235.02 760.037 1149.09 697.328 1118.73 813.136C1083.47 937.828 863.75 981.437 822.104 831.358C784.791 697.453 739.265 751.155 647.566 651.992C555.867 552.829 601.494 365.258 745.903 353.21C845.193 353.251 865.086 324.087 1002.6 239.308Z" stroke="url(#paint10_linear_2316_18)" stroke-opacity="0.7" stroke-width="4" stroke-miterlimit="10"/>
<path d="M985.431 312.37C1060.05 265.869 1156.24 352.197 1137.99 443.473C1123.58 515.505 1176.15 563.899 1171.17 621.963C1161.46 735.09 1105.57 689.65 1076.57 772.585C1042.12 865.391 874.314 915.105 838.575 784.399C807.652 671.663 766.323 718.171 701.435 636.947C636.546 555.723 665.714 418.565 782.073 400.709C848.299 396.287 883.622 376.623 985.431 312.37Z" stroke="url(#paint11_linear_2316_18)" stroke-opacity="0.7" stroke-width="4" stroke-miterlimit="10"/>
<defs>
<linearGradient id="paint0_linear_2316_18" x1="1373.85" y1="1276.21" x2="1337.7" y2="-141.298" gradientUnits="userSpaceOnUse">
<stop stop-color="#212121" stop-opacity="0"/>
<stop offset="0.523551" stop-color="#212121"/>
<stop offset="1" stop-color="#212121" stop-opacity="0"/>
</linearGradient>
<linearGradient id="paint1_linear_2316_18" x1="1373.85" y1="1276.21" x2="1337.7" y2="-141.298" gradientUnits="userSpaceOnUse">
<stop stop-color="#212121" stop-opacity="0"/>
<stop offset="0.523551" stop-color="#212121"/>
<stop offset="1" stop-color="#212121" stop-opacity="0"/>
</linearGradient>
<linearGradient id="paint2_linear_2316_18" x1="1373.85" y1="1276.21" x2="1337.7" y2="-141.298" gradientUnits="userSpaceOnUse">
<stop stop-color="#212121" stop-opacity="0"/>
<stop offset="0.523551" stop-color="#212121"/>
<stop offset="1" stop-color="#212121" stop-opacity="0"/>
</linearGradient>
<linearGradient id="paint3_linear_2316_18" x1="1373.85" y1="1276.21" x2="1337.7" y2="-141.298" gradientUnits="userSpaceOnUse">
<stop stop-color="#212121" stop-opacity="0"/>
<stop offset="0.523551" stop-color="#212121"/>
<stop offset="1" stop-color="#212121" stop-opacity="0"/>
</linearGradient>
<linearGradient id="paint4_linear_2316_18" x1="1373.85" y1="1276.21" x2="1337.7" y2="-141.298" gradientUnits="userSpaceOnUse">
<stop stop-color="#212121" stop-opacity="0"/>
<stop offset="0.523551" stop-color="#212121"/>
<stop offset="1" stop-color="#212121" stop-opacity="0"/>
</linearGradient>
<linearGradient id="paint5_linear_2316_18" x1="1373.85" y1="1276.21" x2="1337.7" y2="-141.298" gradientUnits="userSpaceOnUse">
<stop stop-color="#212121" stop-opacity="0"/>
<stop offset="0.523551" stop-color="#212121"/>
<stop offset="1" stop-color="#212121" stop-opacity="0"/>
</linearGradient>
<linearGradient id="paint6_linear_2316_18" x1="1373.85" y1="1276.21" x2="1337.7" y2="-141.298" gradientUnits="userSpaceOnUse">
<stop stop-color="#212121" stop-opacity="0"/>
<stop offset="0.523551" stop-color="#212121"/>
<stop offset="1" stop-color="#212121" stop-opacity="0"/>
</linearGradient>
<linearGradient id="paint7_linear_2316_18" x1="1373.85" y1="1276.21" x2="1337.7" y2="-141.298" gradientUnits="userSpaceOnUse">
<stop stop-color="#212121" stop-opacity="0"/>
<stop offset="0.523551" stop-color="#212121"/>
<stop offset="1" stop-color="#212121" stop-opacity="0"/>
</linearGradient>
<linearGradient id="paint8_linear_2316_18" x1="1373.85" y1="1276.21" x2="1337.7" y2="-141.298" gradientUnits="userSpaceOnUse">
<stop stop-color="#212121" stop-opacity="0"/>
<stop offset="0.523551" stop-color="#212121"/>
<stop offset="1" stop-color="#212121" stop-opacity="0"/>
</linearGradient>
<linearGradient id="paint9_linear_2316_18" x1="1373.85" y1="1276.21" x2="1337.7" y2="-141.298" gradientUnits="userSpaceOnUse">
<stop stop-color="#212121" stop-opacity="0"/>
<stop offset="0.523551" stop-color="#212121"/>
<stop offset="1" stop-color="#212121" stop-opacity="0"/>
</linearGradient>
<linearGradient id="paint10_linear_2316_18" x1="1373.85" y1="1276.21" x2="1337.7" y2="-141.298" gradientUnits="userSpaceOnUse">
<stop stop-color="#212121" stop-opacity="0"/>
<stop offset="0.523551" stop-color="#212121"/>
<stop offset="1" stop-color="#212121" stop-opacity="0"/>
</linearGradient>
<linearGradient id="paint11_linear_2316_18" x1="1373.85" y1="1276.21" x2="1337.7" y2="-141.298" gradientUnits="userSpaceOnUse">
<stop stop-color="#212121" stop-opacity="0"/>
<stop offset="0.523551" stop-color="#212121"/>
<stop offset="1" stop-color="#212121" stop-opacity="0"/>
</linearGradient>
</defs>
</svg>
