<svg width="665" height="665" viewBox="0 0 665 665" fill="none" xmlns="http://www.w3.org/2000/svg">
<g filter="url(#filter0_d_2316_210)">
<path d="M332.337 592.44C332.337 598.515 327.41 603.461 321.339 603.234C282.651 601.784 244.593 592.699 209.368 576.46C170.811 558.684 136.565 532.761 108.991 500.476C81.4166 468.191 61.1696 430.311 49.6448 389.447C38.1201 348.584 35.5915 305.707 42.2334 263.772C48.8752 221.837 64.5296 181.84 88.1179 146.538C111.706 111.235 142.668 81.4666 178.869 59.2825C215.07 37.0983 255.651 23.0262 297.814 18.0359C336.333 13.4769 375.336 16.5963 412.578 27.173C418.423 28.8326 421.58 35.0594 419.702 40.8372L399.271 103.717C397.394 109.495 391.195 112.627 385.325 111.061C360.22 104.365 334.039 102.479 308.171 105.541C278.657 109.034 250.25 118.885 224.909 134.414C199.568 149.943 177.895 170.781 161.384 195.492C144.872 220.204 133.914 248.202 129.264 277.556C124.615 306.911 126.385 336.925 134.453 365.529C142.52 394.134 156.693 420.649 175.995 443.249C195.297 465.849 219.269 483.995 246.259 496.438C269.915 507.343 295.397 513.64 321.342 515.03C327.409 515.355 332.337 520.249 332.337 526.324L332.337 592.44Z" fill="url(#paint0_linear_2316_210)" shape-rendering="crispEdges"/>
</g>
<g filter="url(#filter1_d_2316_210)">
<path d="M419.702 40.8372C421.58 35.0594 427.794 31.8777 433.498 33.97C488.128 54.0107 535.661 89.8652 569.962 137.076C604.262 184.286 623.673 240.572 625.851 298.722C626.079 304.793 621.132 309.72 615.057 309.72L548.941 309.72C542.866 309.72 537.972 304.791 537.647 298.724C535.53 259.192 522.036 221.023 498.674 188.869C475.313 156.715 443.182 132.086 406.239 117.856C400.57 115.673 397.394 109.495 399.271 103.717L419.702 40.8372Z" fill="url(#paint1_linear_2316_210)" shape-rendering="crispEdges"/>
</g>
<g filter="url(#filter2_d_2316_210)">
<path d="M615.057 309.72C621.132 309.72 626.079 314.647 625.851 320.718C623.673 378.867 604.262 435.154 569.962 482.364C535.661 529.575 488.128 565.429 433.498 585.47C427.794 587.562 421.58 584.38 419.702 578.603L399.271 515.723C397.394 509.945 400.57 503.767 406.239 501.583C443.182 487.354 475.313 462.725 498.674 430.571C522.036 398.417 535.53 360.248 537.647 320.715C537.972 314.649 542.866 309.72 548.941 309.72L615.057 309.72Z" fill="url(#paint2_linear_2316_210)" shape-rendering="crispEdges"/>
</g>
<g filter="url(#filter3_di_2316_210)">
<circle cx="332.338" cy="309.72" r="145" fill="url(#paint3_radial_2316_210)"/>
</g>
<path d="M250.633 332.22V328.58H255.785V315.616L250.577 319.48V315.14L255.365 311.78H259.985V328.58H264.073V332.22H250.633ZM273.61 332.5C272.228 332.5 271.034 332.248 270.026 331.744C269.018 331.221 268.234 330.503 267.674 329.588C267.132 328.655 266.862 327.572 266.862 326.34V317.66C266.862 316.428 267.132 315.355 267.674 314.44C268.234 313.507 269.018 312.788 270.026 312.284C271.034 311.761 272.219 311.5 273.582 311.5C274.963 311.5 276.148 311.761 277.138 312.284C278.146 312.788 278.92 313.507 279.462 314.44C280.022 315.355 280.302 316.428 280.302 317.66V326.34C280.302 327.572 280.022 328.655 279.462 329.588C278.92 330.503 278.146 331.221 277.138 331.744C276.148 332.248 274.972 332.5 273.61 332.5ZM273.582 328.86C274.459 328.86 275.14 328.636 275.626 328.188C276.13 327.74 276.382 327.124 276.382 326.34V317.66C276.382 316.876 276.13 316.26 275.626 315.812C275.14 315.364 274.459 315.14 273.582 315.14C272.704 315.14 272.014 315.364 271.51 315.812C271.024 316.26 270.782 316.876 270.782 317.66V326.34C270.782 327.124 271.034 327.74 271.538 328.188C272.042 328.636 272.723 328.86 273.582 328.86ZM273.582 323.932C273.003 323.932 272.527 323.745 272.154 323.372C271.799 322.999 271.622 322.513 271.622 321.916C271.622 321.319 271.799 320.843 272.154 320.488C272.527 320.133 273.003 319.956 273.582 319.956C274.179 319.956 274.655 320.133 275.01 320.488C275.364 320.843 275.542 321.319 275.542 321.916C275.542 322.513 275.364 322.999 275.01 323.372C274.655 323.745 274.179 323.932 273.582 323.932ZM285.891 336.7L288.131 327.992H293.171L289.531 336.7H285.891ZM307.188 332.5C305.806 332.5 304.612 332.248 303.604 331.744C302.596 331.221 301.812 330.503 301.252 329.588C300.71 328.655 300.44 327.572 300.44 326.34V317.66C300.44 316.428 300.71 315.355 301.252 314.44C301.812 313.507 302.596 312.788 303.604 312.284C304.612 311.761 305.797 311.5 307.16 311.5C308.541 311.5 309.726 311.761 310.716 312.284C311.724 312.788 312.498 313.507 313.04 314.44C313.6 315.355 313.88 316.428 313.88 317.66V326.34C313.88 327.572 313.6 328.655 313.04 329.588C312.498 330.503 311.724 331.221 310.716 331.744C309.726 332.248 308.55 332.5 307.188 332.5ZM307.16 328.86C308.037 328.86 308.718 328.636 309.204 328.188C309.708 327.74 309.96 327.124 309.96 326.34V317.66C309.96 316.876 309.708 316.26 309.204 315.812C308.718 315.364 308.037 315.14 307.16 315.14C306.282 315.14 305.592 315.364 305.088 315.812C304.602 316.26 304.36 316.876 304.36 317.66V326.34C304.36 327.124 304.612 327.74 305.116 328.188C305.62 328.636 306.301 328.86 307.16 328.86ZM307.16 323.932C306.581 323.932 306.105 323.745 305.732 323.372C305.377 322.999 305.2 322.513 305.2 321.916C305.2 321.319 305.377 320.843 305.732 320.488C306.105 320.133 306.581 319.956 307.16 319.956C307.757 319.956 308.233 320.133 308.588 320.488C308.942 320.843 309.12 321.319 309.12 321.916C309.12 322.513 308.942 322.999 308.588 323.372C308.233 323.745 307.757 323.932 307.16 323.932ZM323.977 332.5C322.595 332.5 321.401 332.248 320.393 331.744C319.385 331.221 318.601 330.503 318.041 329.588C317.499 328.655 317.229 327.572 317.229 326.34V317.66C317.229 316.428 317.499 315.355 318.041 314.44C318.601 313.507 319.385 312.788 320.393 312.284C321.401 311.761 322.586 311.5 323.949 311.5C325.33 311.5 326.515 311.761 327.505 312.284C328.513 312.788 329.287 313.507 329.829 314.44C330.389 315.355 330.669 316.428 330.669 317.66V326.34C330.669 327.572 330.389 328.655 329.829 329.588C329.287 330.503 328.513 331.221 327.505 331.744C326.515 332.248 325.339 332.5 323.977 332.5ZM323.949 328.86C324.826 328.86 325.507 328.636 325.993 328.188C326.497 327.74 326.749 327.124 326.749 326.34V317.66C326.749 316.876 326.497 316.26 325.993 315.812C325.507 315.364 324.826 315.14 323.949 315.14C323.071 315.14 322.381 315.364 321.877 315.812C321.391 316.26 321.149 316.876 321.149 317.66V326.34C321.149 327.124 321.401 327.74 321.905 328.188C322.409 328.636 323.09 328.86 323.949 328.86ZM323.949 323.932C323.37 323.932 322.894 323.745 322.521 323.372C322.166 322.999 321.989 322.513 321.989 321.916C321.989 321.319 322.166 320.843 322.521 320.488C322.894 320.133 323.37 319.956 323.949 319.956C324.546 319.956 325.022 320.133 325.377 320.488C325.731 320.843 325.909 321.319 325.909 321.916C325.909 322.513 325.731 322.999 325.377 323.372C325.022 323.745 324.546 323.932 323.949 323.932ZM340.766 332.5C339.385 332.5 338.19 332.248 337.182 331.744C336.174 331.221 335.39 330.503 334.83 329.588C334.289 328.655 334.018 327.572 334.018 326.34V317.66C334.018 316.428 334.289 315.355 334.83 314.44C335.39 313.507 336.174 312.788 337.182 312.284C338.19 311.761 339.375 311.5 340.738 311.5C342.119 311.5 343.305 311.761 344.294 312.284C345.302 312.788 346.077 313.507 346.618 314.44C347.178 315.355 347.458 316.428 347.458 317.66V326.34C347.458 327.572 347.178 328.655 346.618 329.588C346.077 330.503 345.302 331.221 344.294 331.744C343.305 332.248 342.129 332.5 340.766 332.5ZM340.738 328.86C341.615 328.86 342.297 328.636 342.782 328.188C343.286 327.74 343.538 327.124 343.538 326.34V317.66C343.538 316.876 343.286 316.26 342.782 315.812C342.297 315.364 341.615 315.14 340.738 315.14C339.861 315.14 339.17 315.364 338.666 315.812C338.181 316.26 337.938 316.876 337.938 317.66V326.34C337.938 327.124 338.19 327.74 338.694 328.188C339.198 328.636 339.879 328.86 340.738 328.86ZM340.738 323.932C340.159 323.932 339.683 323.745 339.31 323.372C338.955 322.999 338.778 322.513 338.778 321.916C338.778 321.319 338.955 320.843 339.31 320.488C339.683 320.133 340.159 319.956 340.738 319.956C341.335 319.956 341.811 320.133 342.166 320.488C342.521 320.843 342.698 321.319 342.698 321.916C342.698 322.513 342.521 322.999 342.166 323.372C341.811 323.745 341.335 323.932 340.738 323.932ZM353.047 336.7L355.287 327.992H360.327L356.687 336.7H353.047ZM374.344 332.5C372.963 332.5 371.768 332.248 370.76 331.744C369.752 331.221 368.968 330.503 368.408 329.588C367.867 328.655 367.596 327.572 367.596 326.34V317.66C367.596 316.428 367.867 315.355 368.408 314.44C368.968 313.507 369.752 312.788 370.76 312.284C371.768 311.761 372.953 311.5 374.316 311.5C375.697 311.5 376.883 311.761 377.872 312.284C378.88 312.788 379.655 313.507 380.196 314.44C380.756 315.355 381.036 316.428 381.036 317.66V326.34C381.036 327.572 380.756 328.655 380.196 329.588C379.655 330.503 378.88 331.221 377.872 331.744C376.883 332.248 375.707 332.5 374.344 332.5ZM374.316 328.86C375.193 328.86 375.875 328.636 376.36 328.188C376.864 327.74 377.116 327.124 377.116 326.34V317.66C377.116 316.876 376.864 316.26 376.36 315.812C375.875 315.364 375.193 315.14 374.316 315.14C373.439 315.14 372.748 315.364 372.244 315.812C371.759 316.26 371.516 316.876 371.516 317.66V326.34C371.516 327.124 371.768 327.74 372.272 328.188C372.776 328.636 373.457 328.86 374.316 328.86ZM374.316 323.932C373.737 323.932 373.261 323.745 372.888 323.372C372.533 322.999 372.356 322.513 372.356 321.916C372.356 321.319 372.533 320.843 372.888 320.488C373.261 320.133 373.737 319.956 374.316 319.956C374.913 319.956 375.389 320.133 375.744 320.488C376.099 320.843 376.276 321.319 376.276 321.916C376.276 322.513 376.099 322.999 375.744 323.372C375.389 323.745 374.913 323.932 374.316 323.932ZM391.133 332.5C389.752 332.5 388.557 332.248 387.549 331.744C386.541 331.221 385.757 330.503 385.197 329.588C384.656 328.655 384.385 327.572 384.385 326.34V317.66C384.385 316.428 384.656 315.355 385.197 314.44C385.757 313.507 386.541 312.788 387.549 312.284C388.557 311.761 389.742 311.5 391.105 311.5C392.486 311.5 393.672 311.761 394.661 312.284C395.669 312.788 396.444 313.507 396.985 314.44C397.545 315.355 397.825 316.428 397.825 317.66V326.34C397.825 327.572 397.545 328.655 396.985 329.588C396.444 330.503 395.669 331.221 394.661 331.744C393.672 332.248 392.496 332.5 391.133 332.5ZM391.105 328.86C391.982 328.86 392.664 328.636 393.149 328.188C393.653 327.74 393.905 327.124 393.905 326.34V317.66C393.905 316.876 393.653 316.26 393.149 315.812C392.664 315.364 391.982 315.14 391.105 315.14C390.228 315.14 389.537 315.364 389.033 315.812C388.548 316.26 388.305 316.876 388.305 317.66V326.34C388.305 327.124 388.557 327.74 389.061 328.188C389.565 328.636 390.246 328.86 391.105 328.86ZM391.105 323.932C390.526 323.932 390.05 323.745 389.677 323.372C389.322 322.999 389.145 322.513 389.145 321.916C389.145 321.319 389.322 320.843 389.677 320.488C390.05 320.133 390.526 319.956 391.105 319.956C391.702 319.956 392.178 320.133 392.533 320.488C392.888 320.843 393.065 321.319 393.065 321.916C393.065 322.513 392.888 322.999 392.533 323.372C392.178 323.745 391.702 323.932 391.105 323.932ZM407.922 332.5C406.541 332.5 405.346 332.248 404.338 331.744C403.33 331.221 402.546 330.503 401.986 329.588C401.445 328.655 401.174 327.572 401.174 326.34V317.66C401.174 316.428 401.445 315.355 401.986 314.44C402.546 313.507 403.33 312.788 404.338 312.284C405.346 311.761 406.531 311.5 407.894 311.5C409.275 311.5 410.461 311.761 411.45 312.284C412.458 312.788 413.233 313.507 413.774 314.44C414.334 315.355 414.614 316.428 414.614 317.66V326.34C414.614 327.572 414.334 328.655 413.774 329.588C413.233 330.503 412.458 331.221 411.45 331.744C410.461 332.248 409.285 332.5 407.922 332.5ZM407.894 328.86C408.771 328.86 409.453 328.636 409.938 328.188C410.442 327.74 410.694 327.124 410.694 326.34V317.66C410.694 316.876 410.442 316.26 409.938 315.812C409.453 315.364 408.771 315.14 407.894 315.14C407.017 315.14 406.326 315.364 405.822 315.812C405.337 316.26 405.094 316.876 405.094 317.66V326.34C405.094 327.124 405.346 327.74 405.85 328.188C406.354 328.636 407.035 328.86 407.894 328.86ZM407.894 323.932C407.315 323.932 406.839 323.745 406.466 323.372C406.111 322.999 405.934 322.513 405.934 321.916C405.934 321.319 406.111 320.843 406.466 320.488C406.839 320.133 407.315 319.956 407.894 319.956C408.491 319.956 408.967 320.133 409.322 320.488C409.677 320.843 409.854 321.319 409.854 321.916C409.854 322.513 409.677 322.999 409.322 323.372C408.967 323.745 408.491 323.932 407.894 323.932Z" fill="white"/>
<path d="M278.418 292.22V281.836H275.218V280.524H283.058V281.836H279.858V292.22H278.418ZM288.732 292.38C288.028 292.38 287.42 292.247 286.908 291.98C286.406 291.713 286.017 291.329 285.74 290.828C285.473 290.316 285.34 289.713 285.34 289.02V283.74C285.34 283.036 285.473 282.433 285.74 281.932C286.017 281.431 286.406 281.047 286.908 280.78C287.42 280.513 288.028 280.38 288.732 280.38C289.436 280.38 290.038 280.513 290.54 280.78C291.052 281.047 291.441 281.431 291.708 281.932C291.985 282.433 292.124 283.031 292.124 283.724V289.02C292.124 289.713 291.985 290.316 291.708 290.828C291.441 291.329 291.052 291.713 290.54 291.98C290.038 292.247 289.436 292.38 288.732 292.38ZM288.732 291.084C289.361 291.084 289.841 290.908 290.172 290.556C290.513 290.193 290.684 289.681 290.684 289.02V283.74C290.684 283.079 290.513 282.572 290.172 282.22C289.841 281.857 289.361 281.676 288.732 281.676C288.113 281.676 287.633 281.857 287.292 282.22C286.95 282.572 286.78 283.079 286.78 283.74V289.02C286.78 289.681 286.95 290.193 287.292 290.556C287.633 290.908 288.113 291.084 288.732 291.084ZM297.605 292.22V281.836H294.405V280.524H302.245V281.836H299.045V292.22H297.605ZM303.919 292.22L306.959 280.54H308.895L311.919 292.22H310.463L309.695 289.116H306.159L305.391 292.22H303.919ZM306.447 287.9H309.391L308.495 284.3C308.324 283.617 308.191 283.047 308.095 282.588C307.999 282.129 307.94 281.831 307.919 281.692C307.898 281.831 307.839 282.129 307.743 282.588C307.647 283.047 307.514 283.612 307.343 284.284L306.447 287.9ZM314.553 292.22V280.54H315.993V290.908H321.273V292.22H314.553ZM336.764 292.38C335.996 292.38 335.335 292.252 334.78 291.996C334.236 291.74 333.815 291.372 333.516 290.892C333.218 290.412 333.063 289.841 333.052 289.18H334.492C334.492 289.767 334.69 290.231 335.084 290.572C335.49 290.913 336.05 291.084 336.764 291.084C337.436 291.084 337.959 290.919 338.332 290.588C338.716 290.257 338.908 289.799 338.908 289.212C338.908 288.743 338.78 288.332 338.524 287.98C338.279 287.628 337.922 287.383 337.452 287.244L335.868 286.748C335.068 286.503 334.45 286.092 334.012 285.516C333.586 284.94 333.372 284.263 333.372 283.484C333.372 282.855 333.511 282.311 333.788 281.852C334.076 281.383 334.476 281.02 334.988 280.764C335.5 280.497 336.103 280.364 336.796 280.364C337.82 280.364 338.642 280.652 339.26 281.228C339.879 281.793 340.194 282.551 340.204 283.5H338.764C338.764 282.924 338.588 282.476 338.236 282.156C337.895 281.825 337.41 281.66 336.78 281.66C336.162 281.66 335.676 281.809 335.324 282.108C334.983 282.407 334.812 282.823 334.812 283.356C334.812 283.836 334.94 284.252 335.196 284.604C335.452 284.956 335.82 285.207 336.3 285.356L337.9 285.868C338.679 286.113 339.282 286.529 339.708 287.116C340.135 287.703 340.348 288.391 340.348 289.18C340.348 289.82 340.199 290.38 339.9 290.86C339.602 291.34 339.18 291.713 338.636 291.98C338.103 292.247 337.479 292.38 336.764 292.38ZM346.294 292.38C345.206 292.38 344.374 292.081 343.798 291.484C343.222 290.876 342.934 290.055 342.934 289.02V280.54H344.374V289.02C344.374 289.66 344.529 290.167 344.838 290.54C345.158 290.913 345.643 291.1 346.294 291.1C346.934 291.1 347.414 290.913 347.734 290.54C348.054 290.167 348.214 289.66 348.214 289.02V280.54H349.654V289.02C349.654 290.065 349.366 290.887 348.79 291.484C348.225 292.081 347.393 292.38 346.294 292.38ZM352.56 292.22V280.54H356.32C357.045 280.54 357.675 280.684 358.208 280.972C358.741 281.249 359.152 281.644 359.44 282.156C359.739 282.668 359.888 283.276 359.888 283.98C359.888 284.673 359.739 285.281 359.44 285.804C359.152 286.316 358.741 286.716 358.208 287.004C357.675 287.281 357.045 287.42 356.32 287.42H354V292.22H352.56ZM354 286.124H356.32C356.949 286.124 357.451 285.932 357.824 285.548C358.208 285.153 358.4 284.631 358.4 283.98C358.4 283.319 358.208 282.796 357.824 282.412C357.451 282.028 356.949 281.836 356.32 281.836H354V286.124ZM362.154 292.22V280.54H365.914C366.639 280.54 367.268 280.684 367.802 280.972C368.335 281.249 368.746 281.644 369.034 282.156C369.332 282.668 369.482 283.276 369.482 283.98C369.482 284.673 369.332 285.281 369.034 285.804C368.746 286.316 368.335 286.716 367.802 287.004C367.268 287.281 366.639 287.42 365.914 287.42H363.594V292.22H362.154ZM363.594 286.124H365.914C366.543 286.124 367.044 285.932 367.418 285.548C367.802 285.153 367.994 284.631 367.994 283.98C367.994 283.319 367.802 282.796 367.418 282.412C367.044 282.028 366.543 281.836 365.914 281.836H363.594V286.124ZM372.115 292.22V280.54H373.555V290.908H378.835V292.22H372.115ZM383.949 292.22V287.852L380.429 280.54H381.917L384.237 285.34C384.365 285.607 384.466 285.836 384.541 286.028C384.616 286.209 384.664 286.343 384.685 286.428C384.706 286.343 384.754 286.209 384.829 286.028C384.914 285.836 385.021 285.607 385.149 285.34L387.421 280.54H388.909L385.389 287.852V292.22H383.949Z" fill="#FF389B"/>
<g filter="url(#filter4_ii_2316_210)">
<circle cx="332.338" cy="309.72" r="158.75" stroke="white" stroke-opacity="0.25" stroke-width="2.5" stroke-dasharray="4 4"/>
</g>
<defs>
<filter id="filter0_d_2316_210" x="0.0772552" y="0.584028" width="458.707" height="664.321" filterUnits="userSpaceOnUse" color-interpolation-filters="sRGB">
<feFlood flood-opacity="0" result="BackgroundImageFix"/>
<feColorMatrix in="SourceAlpha" type="matrix" values="0 0 0 0 0 0 0 0 0 0 0 0 0 0 0 0 0 0 127 0" result="hardAlpha"/>
<feOffset dy="23.124"/>
<feGaussianBlur stdDeviation="19.27"/>
<feComposite in2="hardAlpha" operator="out"/>
<feColorMatrix type="matrix" values="0 0 0 0 0 0 0 0 0 0 0 0 0 0 0 0 0 0 0.25 0"/>
<feBlend mode="normal" in2="BackgroundImageFix" result="effect1_dropShadow_2316_210"/>
<feBlend mode="normal" in="SourceGraphic" in2="effect1_dropShadow_2316_210" result="shape"/>
</filter>
<filter id="filter1_d_2316_210" x="360.191" y="17.9087" width="304.209" height="353.475" filterUnits="userSpaceOnUse" color-interpolation-filters="sRGB">
<feFlood flood-opacity="0" result="BackgroundImageFix"/>
<feColorMatrix in="SourceAlpha" type="matrix" values="0 0 0 0 0 0 0 0 0 0 0 0 0 0 0 0 0 0 127 0" result="hardAlpha"/>
<feOffset dy="23.124"/>
<feGaussianBlur stdDeviation="19.27"/>
<feComposite in2="hardAlpha" operator="out"/>
<feColorMatrix type="matrix" values="0 0 0 0 0 0 0 0 0 0 0 0 0 0 0 0 0 0 0.25 0"/>
<feBlend mode="normal" in2="BackgroundImageFix" result="effect1_dropShadow_2316_210"/>
<feBlend mode="normal" in="SourceGraphic" in2="effect1_dropShadow_2316_210" result="shape"/>
</filter>
<filter id="filter2_d_2316_210" x="360.191" y="294.304" width="304.209" height="353.475" filterUnits="userSpaceOnUse" color-interpolation-filters="sRGB">
<feFlood flood-opacity="0" result="BackgroundImageFix"/>
<feColorMatrix in="SourceAlpha" type="matrix" values="0 0 0 0 0 0 0 0 0 0 0 0 0 0 0 0 0 0 127 0" result="hardAlpha"/>
<feOffset dy="23.124"/>
<feGaussianBlur stdDeviation="19.27"/>
<feComposite in2="hardAlpha" operator="out"/>
<feColorMatrix type="matrix" values="0 0 0 0 0 0 0 0 0 0 0 0 0 0 0 0 0 0 0.25 0"/>
<feBlend mode="normal" in2="BackgroundImageFix" result="effect1_dropShadow_2316_210"/>
<feBlend mode="normal" in="SourceGraphic" in2="effect1_dropShadow_2316_210" result="shape"/>
</filter>
<filter id="filter3_di_2316_210" x="142.299" y="145.271" width="380.078" height="380.078" filterUnits="userSpaceOnUse" color-interpolation-filters="sRGB">
<feFlood flood-opacity="0" result="BackgroundImageFix"/>
<feColorMatrix in="SourceAlpha" type="matrix" values="0 0 0 0 0 0 0 0 0 0 0 0 0 0 0 0 0 0 127 0" result="hardAlpha"/>
<feOffset dy="25.5903"/>
<feGaussianBlur stdDeviation="22.5194"/>
<feComposite in2="hardAlpha" operator="out"/>
<feColorMatrix type="matrix" values="0 0 0 0 0 0 0 0 0 0 0 0 0 0 0 0 0 0 1 0"/>
<feBlend mode="normal" in2="BackgroundImageFix" result="effect1_dropShadow_2316_210"/>
<feBlend mode="normal" in="SourceGraphic" in2="effect1_dropShadow_2316_210" result="shape"/>
<feColorMatrix in="SourceAlpha" type="matrix" values="0 0 0 0 0 0 0 0 0 0 0 0 0 0 0 0 0 0 127 0" result="hardAlpha"/>
<feOffset dy="-1.1274"/>
<feGaussianBlur stdDeviation="42.6535"/>
<feComposite in2="hardAlpha" operator="arithmetic" k2="-1" k3="1"/>
<feColorMatrix type="matrix" values="0 0 0 0 0.025 0 0 0 0 0.025 0 0 0 0 0.025 0 0 0 0.59 0"/>
<feBlend mode="normal" in2="shape" result="effect2_innerShadow_2316_210"/>
</filter>
<filter id="filter4_ii_2316_210" x="156.338" y="149.72" width="355" height="324" filterUnits="userSpaceOnUse" color-interpolation-filters="sRGB">
<feFlood flood-opacity="0" result="BackgroundImageFix"/>
<feBlend mode="normal" in="SourceGraphic" in2="BackgroundImageFix" result="shape"/>
<feColorMatrix in="SourceAlpha" type="matrix" values="0 0 0 0 0 0 0 0 0 0 0 0 0 0 0 0 0 0 127 0" result="hardAlpha"/>
<feOffset dx="19" dy="4"/>
<feGaussianBlur stdDeviation="12.5"/>
<feComposite in2="hardAlpha" operator="arithmetic" k2="-1" k3="1"/>
<feColorMatrix type="matrix" values="0 0 0 0 0 0 0 0 0 0 0 0 0 0 0 0 0 0 0.25 0"/>
<feBlend mode="normal" in2="shape" result="effect1_innerShadow_2316_210"/>
<feColorMatrix in="SourceAlpha" type="matrix" values="0 0 0 0 0 0 0 0 0 0 0 0 0 0 0 0 0 0 127 0" result="hardAlpha"/>
<feOffset dx="-16" dy="4"/>
<feGaussianBlur stdDeviation="17"/>
<feComposite in2="hardAlpha" operator="arithmetic" k2="-1" k3="1"/>
<feColorMatrix type="matrix" values="0 0 0 0 0 0 0 0 0 0 0 0 0 0 0 0 0 0 0.15 0"/>
<feBlend mode="normal" in2="effect1_innerShadow_2316_210" result="effect2_innerShadow_2316_210"/>
</filter>
<linearGradient id="paint0_linear_2316_210" x1="180.884" y1="295.881" x2="351.412" y2="540.203" gradientUnits="userSpaceOnUse">
<stop stop-color="#FF389B"/>
<stop offset="1" stop-color="#FF389B" stop-opacity="0"/>
</linearGradient>
<linearGradient id="paint1_linear_2316_210" x1="356.374" y1="134.278" x2="483.584" y2="216.41" gradientUnits="userSpaceOnUse">
<stop stop-color="#9F29D0" stop-opacity="0"/>
<stop offset="1" stop-color="#9F29D0"/>
</linearGradient>
<linearGradient id="paint2_linear_2316_210" x1="347.625" y1="516.024" x2="530.132" y2="317.983" gradientUnits="userSpaceOnUse">
<stop stop-color="#D85D62"/>
<stop offset="1" stop-color="#D85D62" stop-opacity="0"/>
</linearGradient>
<radialGradient id="paint3_radial_2316_210" cx="0" cy="0" r="1" gradientUnits="userSpaceOnUse" gradientTransform="translate(239.481 28.0509) rotate(71.2066) scale(577.963)">
<stop stop-color="#9E9E9E"/>
<stop offset="0.434644" stop-color="#242424"/>
<stop offset="0.589582" stop-color="#0C0C0C"/>
<stop offset="0.769353" stop-color="#010101"/>
<stop offset="1"/>
</radialGradient>
</defs>
</svg>
