<svg width="68" height="48" viewBox="0 0 68 48" fill="none" xmlns="http://www.w3.org/2000/svg">
<path d="M51.1106 47.6371C49.0402 47.6371 46.2797 47.5819 42.4701 47.4852C41.6006 47.4714 40.6758 47.4438 39.6958 47.43C36.0933 47.3472 32.8635 47.2782 30.0064 47.223C20.4825 47.0297 15.2375 46.9193 13.1119 46.7537C10.2134 46.5467 4.89938 45.6495 1.98702 42.0746C0.35831 40.1008 -0.276611 37.6164 0.109863 34.7316C0.123665 34.5798 2.11124 19.2174 2.51152 16.1118C2.95321 12.6888 3.32588 11.2257 5.79655 8.38237C6.72132 7.30576 7.01118 7.02971 10.0616 4.21397C10.241 4.03454 10.4342 3.8551 10.6137 3.70328C12.2976 2.30921 13.6088 1.50866 14.9753 1.02556C16.3004 0.556274 17.6944 0.363037 19.7924 0.363037C23.2017 0.363037 47.2735 0.984156 49.9788 1.2188C50.3376 1.24641 50.6689 1.26021 51.0278 1.27401C52.6565 1.32922 54.3404 1.38443 56.9905 3.20638C58.3018 4.06214 60.1513 5.51142 61.6282 6.67084C62.2079 7.12633 62.7462 7.55421 63.1741 7.87167C64.2093 8.65842 65.2721 9.597 66.0312 11.1567C66.818 12.744 67.1769 14.7316 67.1769 17.3955C67.1769 20.0732 67.1078 23.7585 67.025 27.3196C66.956 30.6046 66.9008 33.6964 66.9008 35.6702C66.9008 37.92 66.1969 40.2389 64.8994 42.2126C63.6848 44.0484 62.0285 45.4701 60.3446 46.105C57.4598 47.2644 56.1071 47.6371 51.1106 47.6371Z" fill="black"/>
<path d="M65.4371 17.3955C65.4371 12.2609 63.974 10.6598 62.1244 9.25193C60.5924 8.09251 57.7628 5.78747 56.0099 4.65565C53.2355 2.75089 51.8967 3.13736 49.8125 2.95793C47.2038 2.73709 23.2562 2.11597 19.778 2.11597C16.2997 2.11597 14.6434 2.62666 11.7034 5.05593C11.5516 5.18015 11.3998 5.31818 11.2617 5.47001C8.15615 8.34095 7.96291 8.53419 7.10715 9.52798C4.89873 12.0677 4.63648 13.1995 4.2362 16.3327C3.83592 19.4659 1.83454 34.9524 1.83454 34.9524C0.716527 43.6481 10.5164 44.8351 13.2493 45.0284C15.9822 45.2354 24.4571 45.3596 39.7504 45.6909C55.0437 46.0221 55.5682 46.1602 59.7228 44.49C62.4005 43.4825 65.1748 39.8248 65.1748 35.684C65.1472 31.5432 65.4371 22.5301 65.4371 17.3955Z" fill="black"/>
<path d="M11.7036 5.04299C14.6573 2.61372 16.3136 2.10303 19.7781 2.10303C23.2426 2.10303 47.2039 2.72415 49.8126 2.94499C52.4213 3.16583 53.8706 2.5033 58.4531 6.60269C63.0356 10.7021 63.8637 42.807 59.7091 44.4771C55.5545 46.1472 55.0162 46.0092 39.7367 45.6779C24.4572 45.3467 15.9824 45.2087 13.2356 45.0154C10.5027 44.8084 0.702855 43.6352 1.82087 34.9395C2.93888 26.2438 7.16249 8.7835 11.7036 5.04299Z" fill="black"/>
<path d="M54.0918 32.8822C57.5563 30.2736 58.2326 29.611 58.5638 21.7297C58.8951 13.8484 58.8951 13.6552 58.9641 10.6462C59.0331 7.63723 57.2112 5.99472 55.0994 4.10376C56.5487 4.79389 60.2754 7.84427 62.1249 9.23834C63.9745 10.6462 65.4376 12.2473 65.4376 17.3819C65.4376 22.5165 65.1615 31.5296 65.1615 35.6704C65.1615 39.8112 62.3872 43.4827 59.7095 44.4765C56.5625 38.1549 54.0918 32.8822 54.0918 32.8822Z" fill="#383938"/>
<path d="M1.83594 34.9525L7.03953 27.7338C7.03953 27.7338 7.57783 28.4653 8.30937 28.9346C7.37079 26.5329 7.85389 25.8428 8.77866 17.4508C9.71724 8.97599 9.5102 7.56812 11.7186 5.04224C8.17135 8.31346 8.00572 8.4929 7.10854 9.51429C4.90012 12.054 4.63787 13.1858 4.2376 16.319C3.83732 19.466 1.83594 34.9525 1.83594 34.9525Z" fill="#383938"/>
<path d="M10.0195 12.1096C10.5578 7.66514 11.869 1.97845 19.4467 2.11648C27.0105 2.2545 42.3176 2.70999 49.4812 2.95844C56.6448 3.20689 57.6386 8.18964 57.1831 14.5112C56.7276 20.8328 56.6448 21.5368 56.3825 24.739C56.1203 27.9412 54.3397 32.1234 46.3204 31.8612C38.3011 31.5989 23.1872 31.4195 18.1078 31.24C13.0285 31.0606 7.96289 30.4395 8.94288 22.434C9.92287 14.4284 10.0195 12.1096 10.0195 12.1096Z" fill="#383938"/>
<path d="M25.3251 19.3683C24.9656 19.3583 24.6543 19.2815 24.3912 19.1379C24.1336 18.9945 23.9348 18.7928 23.7949 18.5327C23.6606 18.2673 23.5983 17.9576 23.6082 17.6036L23.6832 14.9076C23.6932 14.5482 23.7726 14.2424 23.9214 13.9904C24.0755 13.7385 24.2852 13.5481 24.5505 13.4192C24.8211 13.2905 25.1362 13.2311 25.4956 13.2411C25.8551 13.2511 26.1636 13.3306 26.4211 13.4795C26.6787 13.6229 26.8748 13.8246 27.0092 14.0845C27.1437 14.3444 27.206 14.6514 27.1962 15.0054L26.4609 14.985C26.4703 14.6473 26.3876 14.3861 26.2129 14.2013C26.0438 14.0113 25.7986 13.9118 25.4772 13.9029C25.1559 13.8939 24.9001 13.9767 24.7099 14.1513C24.5252 14.326 24.4281 14.5822 24.4187 14.9199L24.3434 17.6241C24.334 17.9617 24.4166 18.2257 24.5912 18.4159C24.7714 18.6007 25.0221 18.6977 25.3435 18.7066C25.6648 18.7156 25.9151 18.6326 26.0944 18.4577C26.2793 18.2775 26.3765 18.0186 26.3859 17.6809L27.1211 17.7014C27.1114 18.05 27.0321 18.353 26.8832 18.6105C26.7345 18.8625 26.5274 19.0557 26.2621 19.19C25.9969 19.3189 25.6845 19.3784 25.3251 19.3683ZM30.6834 19.4358C30.2967 19.425 29.9973 19.3131 29.7852 19.1001C29.5786 18.8872 29.4805 18.5929 29.4909 18.2171L29.5644 15.5783L28.2981 15.543L28.3168 14.8731L29.5831 14.9084L29.6183 13.6421L30.3536 13.6625L30.3183 14.9288L32.1156 14.9789L32.097 15.6488L30.2997 15.5987L30.2262 18.2375C30.2167 18.5807 30.3753 18.7568 30.7021 18.7659L31.9275 18.8L31.9088 19.4699L30.6834 19.4358ZM33.5478 19.5155L33.6728 15.0222L34.3918 15.0422L34.3679 15.9001L34.5395 15.9048L34.2878 16.4293C34.3012 15.9445 34.4149 15.5825 34.6287 15.3432C34.8481 15.0986 35.1647 14.982 35.5786 14.9935C36.0525 15.0067 36.4241 15.167 36.6935 15.4742C36.9686 15.7762 37.099 16.1805 37.0849 16.687L37.0774 16.9566L36.3422 16.9361L36.3478 16.7319C36.3577 16.3779 36.2781 16.1059 36.1089 15.9158C35.9454 15.7205 35.7057 15.6184 35.3898 15.6096C35.0794 15.601 34.8316 15.6895 34.6466 15.8751C34.467 16.0609 34.3723 16.328 34.3626 16.6766L34.283 19.536L33.5478 19.5155ZM40.6031 19.7119C40.3417 19.7047 40.1144 19.6466 39.9212 19.5376C39.728 19.4287 39.5796 19.2774 39.476 19.0837C39.3723 18.8901 39.3241 18.6652 39.3312 18.4093L39.4434 14.3816L37.932 14.3396L37.9506 13.6697L40.1973 13.7322L40.0665 18.4297C40.0613 18.6149 40.109 18.7634 40.2094 18.8752C40.31 18.9816 40.4475 19.0372 40.6218 19.042L42.0514 19.0818L42.0328 19.7517L40.6031 19.7119Z" fill="white"/>
</svg>
